<svg xmlns="http://www.w3.org/2000/svg" width="52" height="52" viewBox="0 0 64.248 93.057">
    <path id="database"
        d="M43.3,1.8c-18.026,0-32.2,8.474-32.2,19.1V75.753c0,10.631,14.482,19.1,32.046,19.1,17.718,0,32.2-8.628,32.2-19.1V20.9C75.5,10.12,61.326,1.8,43.3,1.8Zm0,6.933c14.791,0,25.267,6.471,25.267,12.171,0,5.855-10.323,12.171-25.267,12.171S18.033,26.605,18.033,20.9C18.033,15.05,28.51,8.733,43.3,8.733Zm0,79.345c-14.482,0-25.113-6.471-25.113-12.171V69.9c5.855,4.314,14.791,6.933,25.113,6.933S62.713,74.058,68.568,69.9v6.009C68.568,81.607,57.783,88.078,43.3,88.078Zm0-18.18c-14.791,0-25.113-6.163-25.113-11.709V51.1C24.2,55.416,33.594,58.035,43.3,58.035c10.169,0,19.259-2.619,25.267-6.933v7.087C68.568,63.735,58.091,69.9,43.3,69.9ZM64.562,45.4c-4.776,3.544-12.634,5.7-21.261,5.7-8.474,0-16.485-2.157-21.261-5.7-1.849-1.233-3.852-3.39-3.852-6.009V32.922c5.855,4.314,14.945,7.087,25.267,7.087s19.413-2.773,25.267-7.087v6.471C68.568,41.858,66.411,44.015,64.562,45.4Z"
        transform="translate(-11.1 -1.8)" fill="#FFF" />
</svg>
  