<svg xmlns="http://www.w3.org/2000/svg" width="299.23" height="71.405" viewBox="0 0 299.23 71.405">
    <g id="Group_28" data-name="Group 28" transform="translate(-525 -2660)">
        <rect id="Rectangle_12" data-name="Rectangle 12" width="32.644" height="6.953"
            transform="translate(678.699 2724.452)" fill="#bfbfbf" />
        <path id="Path_67" data-name="Path 67" d="M281.8,470.79v71.4h6.953v-71.4Z"
            transform="translate(384.167 2189.21)" fill="#bfbfbf" />
        <path id="Path_68" data-name="Path 68"
            d="M396.154,470.79l-.925,1.969-2.343,4.984-27.021,57.5-3.266,6.953h7.682l3.268-6.953L399.039,481l25.084,54.242,3.216,6.953H435l-3.216-6.953-26.589-57.5-2.294-4.961-.921-1.992Z"
            transform="translate(389.231 2189.21)" fill="#bfbfbf" />
        <path id="Path_69" data-name="Path 69"
            d="M318.869,470.79l.012,6.953h23.34v64.451h6.953V477.743h23.353V470.79Z"
            transform="translate(386.491 2189.21)" fill="#bfbfbf" />
        <g id="Group_19" data-name="Group 19" transform="translate(525 2660)">
            <path id="Path_70" data-name="Path 70"
                d="M168.275,542.195h8.3a35.7,35.7,0,1,0,0-71.4H161.684v6.955h14.894a28.748,28.748,0,1,1,0,57.5H156.1V470.79l-6.953.015v71.39h19.13Z"
                transform="translate(-149.145 -470.79)" fill="#bfbfbf" />
        </g>
        <rect id="Rectangle_13" data-name="Rectangle 13" width="29.728" height="6.953"
            transform="translate(614.313 2691.374)" fill="#bfbfbf" />
        <path id="Path_71" data-name="Path 71"
            d="M220.876,470.79v71.4h48.688v-6.953H227.829v-57.5h41.735V470.79Z"
            transform="translate(380.35 2189.21)" fill="#bfbfbf" />
    </g>
</svg>
  