<svg xmlns="http://www.w3.org/2000/svg" width="400.394" height="71.405" viewBox="0 0 400.394 71.405">
    <g id="Plus4U_Logo" data-name="Plus4U Logo" transform="translate(-35.433 106.299)">
        <g id="g20" transform="translate(387.136 -63.796)">
            <path id="path22"
                d="M0,0C0,6.694.957,9.987,3.719,12.644S11.911,17,16.8,17c6.695,0,13.4-2.445,15.313-6.377C33.176,8.5,33.6,5.42,33.6,0V-42.5h15.09V-.745c0,10.945-2.231,17.852-7.119,22.315-5.74,5-14.57,7.331-25.09,7.331-10.945,0-19.459-2.444-24.559-7.224-5.313-4.995-7.011-10.2-7.011-21.357V-42.5H0Z"
                fill="#bfbfbf" />
        </g>
        <g id="g30" transform="translate(353.414 -60.989)">
            <path id="path32"
                d="M0,0H-28.022L0-29.592ZM-4.78-45.31-45.144-2.79V12.779H0V25.556H15.09V-45.31H-4.78Z"
                fill="#bfbfbf" />
        </g>
        <g id="g38" transform="translate(230.316 -48.21)">
            <path id="path40"
                d="M0,0H34.629c5.528,0,8.609-.291,10.415-1.46a7.406,7.406,0,0,0,3.719-6.582,8.322,8.322,0,0,0-4.356-7.436c-1.594-.956-4.357-1.515-7.971-1.515H20.9c-8.181,0-13.709-1.249-17.32-4.222a20.649,20.649,0,0,1-7.119-15.94c0-8.713,4.78-16.576,11.686-19.232,3.4-1.275,7.12-1.7,15.834-1.7H56.694v12.58H24.722c-6.59,0-9.034.276-10.733,1.127-2.233,1.276-3.506,3.612-3.506,6.8A7.624,7.624,0,0,0,13.67-31.1c1.914,1.17,4.25,1.332,9.778,1.332H38.171c10.2,0,15.62,1.749,19.87,5.681,3.4,3.291,5.737,9.669,5.737,16.043,0,7.228-3.294,14.126-8.606,17.634-3.612,2.444-8.075,3.188-19.02,3.188H0Z"
                fill="#bfbfbf" />
        </g>
        <g id="g42" transform="translate(170.996 -63.796)">
            <path id="path44"
                d="M0,0C0,6.694.956,9.987,3.719,12.644S11.911,17,16.8,17c6.7,0,13.4-2.445,15.314-6.377C33.176,8.5,33.6,5.42,33.6,0V-42.5H48.69V-.745c0,10.945-2.231,17.852-7.119,22.315C35.833,26.565,27,28.9,16.483,28.9c-10.945,0-19.459-2.444-24.559-7.224-5.312-4.995-7.013-10.2-7.013-21.357V-42.5H0Z"
                fill="#bfbfbf" />
        </g>
        <g id="g46" transform="translate(121.39 -106.298)">
            <path id="path48" d="M0,0V58.089H30.972V70.866l-46.062,0V0Z" fill="#bfbfbf" />
        </g>
        <g id="g50" transform="translate(71.587 -72.83)">
            <path id="path52"
                d="M0,0C3.826,0,6.164-.533,7.756-1.805c2.019-1.6,3.295-5.1,3.295-9.139,0-4.569-1.806-7.862-4.994-9.136a15.26,15.26,0,0,0-5.739-.809H-21.064V0ZM-21.064,37.4h-15.09V-33.466H-.213c12.114,0,16.576,1.274,21.145,6.055a24.292,24.292,0,0,1,6.7,17c0,7.224-2.763,14.025-7.439,18.166-4.25,3.72-8.182,4.887-16.469,4.887H-21.064V37.4Z"
                fill="#bfbfbf" />
        </g>
    </g>
</svg>
  