<svg xmlns="http://www.w3.org/2000/svg" width="52" height="52"
    viewBox="0 0 560.011 560.004">
    <path id="stack"
        d="M624.73,375.64l1.75,2.762a28,28,0,0,1-8.117,36.324l-2.762,1.75-252,140a28.008,28.008,0,0,1-23.945,1.543l-3.25-1.543-252-140a28,28,0,0,1,24.25-50.375l2.945,1.422,238.38,132.42,238.43-132.42a28,28,0,0,1,36.324,8.117Zm0-112,1.75,2.762a28,28,0,0,1-8.117,36.324l-2.762,1.75-252,140a28.008,28.008,0,0,1-23.945,1.543l-3.25-1.543-252-140a28,28,0,0,1,24.25-50.375l2.945,1.422,238.38,132.42,238.43-132.42a28,28,0,0,1,36.324,8.117ZM336.41,3.52a27.992,27.992,0,0,1,27.2,0l252,140a28,28,0,0,1,0,48.953l-252,140a27.993,27.993,0,0,1-27.2,0l-252-140a28,28,0,0,1,0-48.953Zm13.6,56.508L155.658,168l194.32,107.94L544.328,168Z"
        transform="translate(-69.997 0.004)" fill="#fff" />
</svg>
  