<?xml version="1.0" encoding="UTF-8"?>
<svg id="StohanzlStudios_Logo_ALT" xmlns="http://www.w3.org/2000/svg" viewBox="0 0 82.628 133.839">
  <path id="Path_14" data-name="Path 14"
    d="M429.334,121.912a2.639,2.639,0,0,1,2.233,3.434L418.8,165.076a2.107,2.107,0,0,1-3.619.71l-3.883-4.619a2.106,2.106,0,0,0-2.754-.412l-5.388,3.471s-35.372-9.58-30.355-26.922c8.1-5.277,8.822-5.734,14.841-8.822a2.1,2.1,0,0,0,.892-2.872l-2.679-4.942a2.111,2.111,0,0,1,2.077-3.1Z"
    transform="translate(-349.068 -117.552)" fill="#d38d30" />
  <path id="Path_15" data-name="Path 15"
    d="M367.464,208.23c16.974,6.168,36.442,34.986-2.787,59.5.164-.268,8.186-13.377-.5-20.924-8.773-7.625-23.072-10.5-23.072-10.5-11.371-3.6-17.944-8.621-17.944-8.621-8.941-6.321-23.47-25.554-2.976-47.118,3.686-3.876,8.762-6.808,13.218-9.706-12.534,16.908,3.04,24.666,3.04,24.666l19.078,7.569Z"
    transform="translate(-309.764 -151.048)" fill="#eb9c34" />
  <path id="Path_16" data-name="Path 16"
    d="M397.777,357.476c8.684,7.547.661,20.657.5,20.924l0,0-.03.022s2.538-20.415-35.012-23.871l11.475-7.581S389,349.851,397.777,357.476Z"
    transform="translate(-343.362 -261.723)" fill="#bc8030" />
  <path id="Path_17" data-name="Path 17"
    d="M332.985,367.375C370.535,370.831,368,391.246,368,391.246c-.628.468-11.568,8.651-20.263,13.3-20.166,10.773-34.265-3.092-32.481-17.313a19.73,19.73,0,0,1,8.773-13.935Z"
    transform="translate(-313.118 -274.542)" fill="#d38d30" />
  <path id="Path_18" data-name="Path 18"
    d="M395.574,197.627,387.247,203l-19.078-7.569s-15.573-7.759-3.04-24.666c.03-.019.059-.041.089-.056C360.2,188.047,395.574,197.627,395.574,197.627Z"
    transform="translate(-341.49 -150.954)" fill="#bc8030" />
</svg>
            