<svg id="Unicorn_Company_Logo" data-name="Unicorn Company Logo" xmlns="http://www.w3.org/2000/svg"
    width="600" height="135.382" viewBox="0 0 600 135.382">
    <g id="g20" transform="translate(467.914 49.53)">
        <path id="path22"
            d="M-3.142-2.906c13.721-3.729,16.3-13.885,16.618-19.6A19.284,19.284,0,0,0,5.658-38.869c-3.42-2.637-8.273-3.8-15.767-3.8l-23.005.045-13.027,66h14.6l10.393-53.68h8.6c6.789,0,11.6.559,11.646,7.789C-.858-17.19-4.25-13.893-11.263-12.44c-4.443.921-9.191,1.761-11.32,2.131l17.6,33.676H10.34L-4.186-2.622Z"
            transform="translate(46.14 42.674)" fill="#bfbfbf" />
    </g>
    <g id="g24" transform="translate(171.395 49.531)">
        <path id="path26"
            d="M-1.625,0-8.477,36.357a43.791,43.791,0,0,0-.685,8.031C-9.064,50.262-5.341,55.069,2,55.069c8.622,0,14.211-5.583,16.665-18.712L25.522,0h14.8L33.454,36.161C29.346,57.52,19.733,67.218.14,67.218c-14.6.1-24-7.343-24-22.83a53.955,53.955,0,0,1,.882-8.914L-16.313,0Z"
            transform="translate(23.864)" fill="#bfbfbf" />
    </g>
    <g id="g28" transform="translate(236.382 49.531)">
        <path id="path30"
            d="M0-4.826,12.444-70.865H30.869l9.9,24.89a193.56,193.56,0,0,1,6.853,23.224h.295c.1-6.67.978-12.542,2.749-21.754l4.891-26.36H69.669L57.224-4.826H41.16L30.673-31.775c-3.135-8.817-5.395-15.278-7.449-23.314h-.393c-.687,6.37-2.251,15.184-4.113,25.277L14.012-4.826Z"
            transform="translate(0 70.865)" fill="#bfbfbf" />
    </g>
    <g id="g32" transform="translate(307.529 49.53)">
        <path id="path34" d="M-1.991,0-14.526,66.039h-14.7L-16.684,0Z" transform="translate(29.229)"
            fill="#bfbfbf" />
    </g>
    <g id="g36" transform="translate(338.88 48.365)">
        <path id="path38"
            d="M-3.472-4.892c-2.841.656-6.663,1.457-14.98,1.453-17.729-.009-32.529-9.3-32.529-29.878,0-14.506,7.151-25.579,18.023-31.954,7.261-4.4,15.582-6.561,25.777-6.561,8.421,0,11.8,1.448,15.306,2.689L5.642-56.9a37.059,37.059,0,0,0-14.1-2.49c-6.466,0-12.445,1.666-16.849,4.99-5.887,4.121-9.6,11.074-9.6,19.806,0,11.268,7.143,18.71,20.474,18.71,5.385,0,9.469-.176,13.394-1.843Z"
            transform="translate(50.981 71.831)" fill="#bfbfbf" />
    </g>
    <g id="g40" transform="translate(394.961 48.365)">
        <path id="path42"
            d="M-2.37-4.111A18.568,18.568,0,0,0,10.957-9.889c4.8-4.707,7.64-12.054,7.64-19.8,0-9.6-3.715-18.517-16.064-18.517a18.985,18.985,0,0,0-13.622,5.873,28.43,28.43,0,0,0-7.836,19.8c0,11.171,5.381,18.42,16.456,18.42ZM-4.527,8.036C-22.549,8.036-34.8-3.426-34.8-21.452c0-11.466,4.411-21.372,11.759-28.323A38.861,38.861,0,0,1,4.2-60.356c18.517,0,30.277,11.267,30.277,29.781,0,11.269-4.12,21.079-11.367,28.033C16.342,4.115,6.739,8.036-4.43,8.036h-.1Z"
            transform="translate(34.8 60.356)" fill="#bfbfbf" />
    </g>
    <g id="g44" transform="translate(530.335 49.531)">
        <path id="path46"
            d="M0-4.826l12.443-66.04H30.86l9.9,24.892a192.687,192.687,0,0,1,6.865,23.221h.291c.1-6.668.981-12.54,2.733-21.752l4.906-26.361H69.665L57.217-4.826H41.148L30.664-31.776c-3.139-8.816-5.383-15.278-7.439-23.313h-.394c-.687,6.37-2.255,15.185-4.12,25.274l-4.7,24.988Z"
            transform="translate(0 70.866)" fill="#bfbfbf" />
    </g>
    <g id="g52" transform="translate(0 0)">
        <path id="path54"
            d="M-9.745-6.677c-.845,1.97,1.76,3.1.846,5.067A2.126,2.126,0,0,0-6.507,1.277C-5.8.785-4.185,1-4.326-.2c.493-3.449-3.167-5.067-5.419-6.476M-37.962-47.361c-1.688.914-4.855.071-5.065,2.676,2.04.421,4.644-.845,6.4.352-1.689,1.477-5.067,1.689-5.208,4.224,1.9.561,2.956,3.519,4.926,3.871,2.463-.987,7.39.211,7.88-3.519-3.1-2.606-3.658-8.236-8.936-7.6m71.842-31.6c-2.323-1.618-6.543-1.618-8.8.845-3.763,2.147,2.888,2.324,4.435,2.393,2.391,0,3.235-1.408,4.361-3.237M22.059-72.84c-2.673.281-3.941-2.676-6.755-2.042A5.26,5.26,0,0,0,10.942-72c1.338.634,3.377,1.407,5.065,2.182,2.465-.282,4.929-.561,6.053-3.025M6.72-68.336c-2.043-1.408-4.646-1.549-7.249-1.479-3.659.283-4.15,3.52-6.332,5.21,3.377,1.654,2.673,1.654,5.382,2,2.746-.775,7.494-2.991,8.2-5.736m-16.4,7.954c-5.947-4.329-7.882-4.293-11.469-1.478,0,0,4.291,4.364-1.83,3.661,0,0,2.956,1.758,3.237,2.743,4.644.423,5.771-1.2,7.39-3.378.913-.845,1.476-.6,2.672-1.548M-22.342-39.267c-2.464-1.689-5.348-2.041-7.248-4.224,1.408-2.11,3.588.352,5.418.493.353-.281,1.408,0,1.126-.843-1.689-4.435-8.444-.845-10.274-5.067,2.041-1.972,6.124-.212,7.951-1.478-.49-1.408-2.393-1.619-3.589-2.394-1.97-.212-3.87.493-5.206-.493,1.687-1.83,4.15-2.112,6.614-1.69-1.2-2.675-4.927-.493-6.967-1.828-2.391,1.97-6.967,1.264-7.388,5.348-.7,1.478-2.534,2.744-4.223,2.253-2.322.421-1.9,2.955-3.1,4.364-.984-.282-1.548.561-2.323.845-.913,2.323,2.323,1.759,2.885,3.519-2.252,1.689-5.347,1.055-8.162,1.2v1.69c-1.969,1.407-3.941-.917-5.911-1.478-4.293-2.815-1.548,3.378-2.323,5.07,2.183,2.884-2.111,3.658-1.2,6.9,1.408,4.574,1.549,10.205,5.771,13.162.423-5.419-3.166-11.121-.212-16.4.565.424,1.478-.773,1.9.353a25.1,25.1,0,0,0,3.024,16.259c.634.211,1.76.634,2.182,0-.633-3.1-1.548-6.265-1.2-9.5,1.125-1.055,1.619-3.379,3.589-2.676-.423,5.419,1.9,10.136,2.532,15.346,1.689,1.2,1.811,4.345,3.378,4.715a5.8,5.8,0,0,0-1.2-3.38c-.071-2.041-.845-4.362.631-5.912,2.323,2.606,2.323,6.194,4.221,9.01,3.379,2.6-.633-2.112.212-3.59-.212-2.393-2.6-4.927-.212-7.109,2.869,6.125,2.994,7.228,3.73,8.5,1.161,1.407,1.427-2.815,2.975,3.4,2.848,1.266-1.109-5.771,2.092-4.7,1.109-.37,1.02.685,1.2,2.3,1.055,3.485,1.5,4.718,2.532,7.6.545,1.074,1.163.985,2.481,1.2,1.244-.235-.391,3.63.666,5.877a10.582,10.582,0,0,0,1.576,1.358l.766.911a3.611,3.611,0,0,0,1.125,1.286c2.464,3.554,2.464,2.673,6.192,2.532.561.282,0-.773,0-1.2l-3.571-3.749c-1.3-1.865-1.705-6.247-3.326-7.865-.561-.846-1.759.016-1.9-1.515-2.955-2.323,2.252-2.989,2.534-4.75,1.407-.422,2.569.881,3.694,1.725.951,3.062,4.82,3.59,6.51,7.214,1.476,2.709,3.059,5,5.521,5.95,3.166,1.16,3.695-.777,5.945-2.079C5.312,2.157.456-.342-.388-3.58-.106-6.818-3.836-8.366-5.948-9.7c-.176-1.69.879-2.393-1.2-3.166-3.378-.424-6.051-2.747-8.585-4.788-2.111-1.478-5.768-1.831-6.261-4.5,3.518-.776,6.123,2.322,9.43,2.182.351-3.027-2.675-2.817-4.364-4.576-.281-1.337-1.337-2.041-2.391-2.885-.775-2.042,1.617-.282,2.531-.846,1.266-3.941-5.7-4.925-3.166-8.586a5.612,5.612,0,0,0-2.391-2.394m8.795,48.5c-1.2-3.308-3.307-5.665-5.768-8.445.634,2.6,1.846,6.562,3.412,7.108.985.211,1.443,1.76,2.357,1.337m-41.868,3.027c-4.081-.352-7.248-2.6-11.187-3.168C-73.147,4.938-81.027,2.825-86.023-4.142c.773-1.689-1.549-3.59.7-4.5,2.675,3.307,5.912,5.42,8.936,8.586,1.267.423,2.746.423,3.731,1.549,4.081-.282,6.051,3.59,9.921,3.87,1.619,1.269,4.573.423,6.474.494-.141-.633.282-1.479-.352-1.83C-66.461.785-75.891-3.227-84.335-10.2c.564-1.057.352-2.464.845-3.519a9.323,9.323,0,0,1,4.223,2.181C-76.314-7.8-71.387-6.324-67.8-3.58c3.448-.071,5.77,3.1,9.148,2.534,1.125-1.829-1.337-2.464-1.2-4.223-4.926-.985-9.991-2.183-14.144-4.576-3.519-2.323-8.094-3.8-9.639-7.954a1.422,1.422,0,0,1,1.477-1.548c1.126.28,1.336,1.407,1.689,2.252a44.212,44.212,0,0,0,11.328,6.407,19.857,19.857,0,0,1,3.589.141c.7-.212,0-.916,0-1.34-2.675-1.477-4.785-4.224-7.46-5.559-2.532-1.621-5.98-1.126-8.3-3.38a5.315,5.315,0,0,1,.7-4.082c2.464,2.393,5.42,5.067,8.937,3.378a5,5,0,0,0-1.2-2.885c-1.688-2.6-7.81-2.746-5.911-7.039,2.391.212,4.082,3.731,7.107,2.183.423-4.153-5.066-5.349-5.418-9.151,3.026-1.97,3.871,2.815,7.108,2.042.561-2.464-.847-5.35-1.2-8.095,2.6-2.042.141-4.856.211-7.25.423-3.027,4.012-2.956,3.73-6.266-.845-3.729-.352-7.319-1.2-10.979-3.73,1.337-4.011,6.336-4.574,10.136-1.688,2.887,1.9,5.068.141,7.742a2.616,2.616,0,0,1-1.97-1.2c-1.125-6.477-.633-13.656,2.814-18.865-.141-.352-.492-.914-.985-.7-4.081,1.83-5.347,6.265-5.418,10.487.423,3.309.353,6.968,2.04,9.644-.07.422-.281,1.055-.984.845-3.588-2.955-3.588-7.39-4.573-11.333-2.041,2.254-2.041,5.913-2.884,8.94-.071,1.055,1.055,2.041.14,3.026.775,3.8,1.2,7.743,2.393,11.331a1.809,1.809,0,0,1-1.548.706c-.635-1.2-2.393-1.971-1.97-3.589-2.113-2.956-1.619-6.971-2.393-10.488-.141.775-1.055,1.2-1.2,1.9-1.2,3.518-2.181,8.8.845,11.823.07,2.253,1.97,3.237,2.744,5.21-.423,2.182,2.111,3.59,1.125,5.56a10.211,10.211,0,0,1-4.362-1.83c-.7-5.912-5.067-10.349-5.418-16.4-.634-4.224-1.269-8.73-2.885-12.319a97.819,97.819,0,0,0-.493,12.319c-.07,3.73,1.97,6.545,1.337,10.488,1.407.983,2.251,4.714,2.251,4.714l.985,2.041a58.351,58.351,0,0,1,4.715,8.306c.492.071.492,1.055,0,1.338-3.519-1.126-6.123-3.308-6.756-7.109-4.714-5.561-4.291-13.233-5.909-20.131-.634-3.026.7-5.912-.634-8.587a6.924,6.924,0,0,0-1.408,3.731c.7,7.109-.422,15.133,3.589,20.764.493,5.068,4.785,8.519,4.221,14.009,2.746,1.406.775,5.066,3.027,6.756.633.7-.634.985-.985,1.2-.493-.282-1.2-.775-1.2-1.337-2.182-1.126-.342-3.977-3.088-4.892-.422-5.7-5.638-10.03-5.568-15.732-3.659-5.49-1.97-10.839-3.377-17.033-1.055,1.971-1.408,5.489-.984,8.446,2.391,7.813,1.337,18.476,8.091,23.826.071.843.634,2.746-.493,2.887a79.413,79.413,0,0,0-6.9-9.326c-1.055-6.407-3.377-12.811-3.588-19.64-.564.7-.564,1.689-.985,2.391a188.861,188.861,0,0,0,3.73,21.259,1.268,1.268,0,0,0,.843.845c.7,3.1,3.166,5.56,4.012,8.446.14.281-.282.281-.141.563,3.236,3.1,3.94,7.461,7.107,10.417.845,2.042,2.393,4.013,2.534,6.124-.7.282-1.408-.493-2.042-.7C-99.324,3.88-102-1.68-105.586-5.973c-1.547-6.474-5.066-12.176-6.755-18.582-.633-1.618.634-3.941-1.2-4.364.422,9.079,1.9,17.175,6.262,24.635,2.532,2.958,3.378,6.757,6.544,9.292,1.337,1.338,1.406,3.588,3.589,4.364a1.259,1.259,0,0,1-.494,1.689,23.6,23.6,0,0,1-7.107-6.545c-2.532-.283-2.673-3.026-3.237-4.926-3.94-3.8-4.643-9.222-7.106-13.867A61.284,61.284,0,0,0-112.2-3.3c4.221,6.406,6.755,13.515,13.862,18.09.353,1.831,2.532,1.338,3.237,2.885-1.619,2.395-1.443,1.373-3.237-.352A112.224,112.224,0,0,1-110.511,6.7c-1.76-2.111-2.463-5.137-4.223-6.756-.211,2.534,1.057,4.364,1.548,6.616,3.519,6.054,8.515,11.966,13.651,17.386-.422.635-1.407.563-2.04.352-2.675-2.956-6.684-4.012-7.882-7.953-3.589-1.971-4.433-6.477-7.319-9.5a23.425,23.425,0,0,0,13.228,19.286c.916.773.071,2.746,1.479,2.885.7-1.265,2.181-1.337,3.236-2.182,5.912.773,11.47.422,16.044-3.1-3.378-1.971-8.162-3.238-8.092-8.1.282-.281.7-1.2,1.337-.633a3.54,3.54,0,0,1,1.688,2.182c3.519,1.265,6.263,4.224,10.626,4.014,5-.213-1.548-1.973-2.393-3.029-4.081-1.97-7.67-6.054-10.414-9.291.352-1.2.281-2.814,1.478-3.52,4.714,7.533,12.525,11.193,20.265,12.318.352-.352.984-.634.494-1.2A44.944,44.944,0,0,1-83.842,7.049c-1.125-1.9-4.152-1.618-4.362-4.224.561-1.548-.423-3.871.845-4.926A39.209,39.209,0,0,0-56.61,14.158a1.617,1.617,0,0,0,1.2-1.9M-104.741,29.15c-3.308-3.237-7.177-5.912-10.484-9.431-1.549,4.5,2.884,7.319,4.925,10.768a3.786,3.786,0,0,0,1.97.565c1.337-.424,4.082.28,3.589-1.9m-6.966,2.182c-2.744-1.2-3.8-4.576-6.192-6.192-1.126,1.407,1.125,3.94,0,5.419-2.884-.917-2.393-5.349-3.729-7.32-2.394.634-1.619,3.377-3.238,4.715-.492.352-.843-.07-.984-.492,1.055-3.59.141-8.869,5.067-9.926,1.758-1.971-1.057-.141-1.549-1.2-.353-1.057.634-1.549.845-2.394-1.126-1.267-2.251-5.773-4.714-2.887-1.618,1.9-1.267,4.856-.352,6.968,1.688,5.491-6.544,8.518-2.884,14.008,5.98.071,11.821-.07,17.592-.352.07-.07.21-.142.14-.353m-20.759-4.717a15.227,15.227,0,0,0,2.394-7.739c-2.744.913-3.1,3.94-3.589,6.545.423.421.211,1.688,1.2,1.194m-1.2-21.748c1.2-2.746,4.432-4.645,5.067-7.6.561-1.76-.987-3.448-.494-4.927a1.141,1.141,0,0,0-.984-.494c-1.055,1.55-1.689,3.308-3.026,4.717-.211,2.747-1.9,5.7-.563,8.307m1.2-15.2c-1.547-.775-2.6.846-3.87,1.337-1.547,1.478-1.477,3.872-1.2,5.913.564.493.212,1.829,1.336,1.689a76.644,76.644,0,0,0,3.73-8.939m-4.22-3.59c1.406,2.041,2.954-.985,5.066,0-.846-1.9,1.336-6.053-2.041-6.053-2.323,1.126-2.111,4.011-3.025,6.053M-135-26.948c.21.282.21.984.7.843,1.2-.14.49-1.407.633-2.182a28.691,28.691,0,0,0,2.534-9.783A9.37,9.37,0,0,0-135-26.948m3.87-16.191c4.15-4.925,5.206-12.035,11.539-16.047v-.493c-1.97-.914-3.1,2.394-5.278,2.041-5,3.027-6.261,8.8-6.261,14.5m8.654-20.13c2.6.141,4.5-2.112,6.9-1.97-.492-2.182,1.619-3.52.845-5.632-.141-.282-.141-.634-.492-.845-4.364.985-6.685,4.153-7.249,8.446m9.921,15.555c-2.04-1.688-4.853-.631-7.036,0-2.885,2.606-6.826,5.491-6.755,8.94,5.066-1.9,9.71-6.194,13.791-8.94m-6.755,42.938c.775-6.265,2.042-12.741,1.549-19.076a4.272,4.272,0,0,0-.985-2.041,15.463,15.463,0,0,0-3.942,6.757c-.843,5.208.494,10.979,3.378,14.359m-4.5,9.784c2.182,1.057,2.393,3.8,4.362,4.926a15.838,15.838,0,0,0-.352-5.772c-1.055-1.618.914-4.573-1.689-5.42-.773-3.59-2.814-6.9-4.221-10.136-2.884,5.7.985,11.051,1.9,16.4m-4.082-.352c-.423-1.549-1.759-1.338-2.675-.141-1.547,2.6-1.476,6.476-.7,9.432.633.211.772-.282,1.2-.494,1.125-2.6,3.236-5.349,2.181-8.8m.493-24.988c2.532-2.676,3.66-5.913,5.771-8.8-3.73.423-5,4.012-6.616,6.615.071.773-.281,2.253.846,2.183m10.978-19.076c-3.167-.843-5.841,1.831-8.233,3.52-.845,1.971-3.166,3.66-3.237,6.125.212.351.564.28.845.492,1.9-2.041,4.221-3.731,7.248-3.379,1.829-1.266,1.9-3.73,3.237-5.278-.282-.635.493-1.057.141-1.479m.7-17.6c-3.166,1.126-7.529,4.011-7.6,7.6,4.362-2.393,9.5-3.166,14.706-3.73.633-.7,1.9-1.549,1.688-2.815-3.1-.07-5.63-1.267-8.8-1.055m2.887-3.731c2.743-.565,4.924.564,7.6-.281,1.97-1.128,5.207-1.69,5.559-4.224-1.547-1.408-4.152-.212-5.911-1.057-2.884,1.338-6.685,1.69-7.247,5.561m2.813-10.77c3.237-.281,5.067-2.956,7.46-4.715.7-1.057,2.463-1.126,2.532-2.041-1.055-1.478-3.166-.072-4.925-.493a8.486,8.486,0,0,0-5.067,7.249m15.552,13.656c.633,1.407.7,3.8,2.041,4.223,0-3.377.211-6.967-.846-9.784-1.688,1.2-1.055,3.59-1.2,5.561m-4.011-16.682a9.342,9.342,0,0,0-6.615,4.5h5.418c2.252-.071,4.574,2.042,6.756,0,.913-.845,3.518-.564,2.673-2.534-1.548-2.254-5.56-1.971-8.232-1.971m11.118,6.9c.07-.212-.071-.564-.353-.494-.984.282-1.336,1.337-2.041,2.043a12.046,12.046,0,0,0,.846,7.742,2.065,2.065,0,0,0,.843-.7c-.281-2.814.493-5.7.7-8.586m-8.8-13.515c1.618,2.111,3.659,2.676,5.559,4.364,1.408,1.055,1.97,3.026,3.588,3.378,1.477-1.267,3.308-.914,5.067-1.97a11.445,11.445,0,0,0-4.081-3.1c-1.055-.212-1.267-1.408-2.182-1.972-2.322-.493-5.7-2.744-7.951-.7M-83-69.674c-1.689,1.9-2.884,4.718-2.323,7.251,1.83-.564,2.182-2.958,3.026-4.507.775-1.124,1.759-1.829,2.532-3.1,1.126-2.885-2.323-.282-3.236.352m-4.715-14.852c3.166,2.887,7.882,3.449,9.5,7.743a4.927,4.927,0,0,0,4.221.353,49.4,49.4,0,0,0,5.911-.634c.212-1.548-1.97-2.042-2.534-3.379-4.5-1.548-8.655-3.941-13.51-4.576-1.125-.07-2.954-.7-3.589.493m27.02,15.7c-.984-1.2.775-4.152-1.476-4.224-.845,1.408-1.2,2.956-1.9,4.436,0,2.041.7,4.013.7,5.913.282.492.494,1.479,1.338,1.336.984-2.252,2.391-4.644,1.335-7.461M-61.677-50.6c-.492-1.2-2.111-2.323-3.237-1.689-1.337,1.759-2.463,4.012-1.477,6.265,1.266-.7,3.448-.564,4.714-1.478.493-1.057-.281-1.971,0-3.1m-7.6-34.28c.493,2.534,3.307,3.1,4.856,4.927.983.7.914,2.112,1.9,2.535,1.548,0,2.535-1.267,3.731-2.182.21-1.2-1.69-1.69-1.9-3.1-2.884-.7-5.206-3.731-8.584-2.183M-51.9-49.754c-1.97,1.549-4.572,2.323-5.909,4.576-.282.773-.635,2.181.492,2.393,2.042-1.76,5.841-3.8,5.418-6.968m-7.739-3.872c.422.7,1.2.634,1.689,1.338,2.746,2.744,5-1.126,6.543-2.534,4.223-6.478,5.138-17.246,1.2-24.144-1.267-1.759-1.971-3.871-4.082-4.717-3.026,9.362-2.815,20.554-5.348,30.056m14.355-.984a64.826,64.826,0,0,1,8.232-4.715c0-1.831-2.037-3.1-3.729-3.731-1.407,3.025-4.573,5-6.754,7.742-.424,1.126,1.546.914,2.251.7m1.337-10.346c1.055-.987,2.532-1.057,2.532-2.676-1.055-.7-1.336-6.582-2.884-5.525.211,1.618-1.69,7.919.352,8.2m5.911-.494c3.1,2.676,7.319,4.646,11.962,3.872.843-1.619-1.477-1.126-2.04-2.183-.846-4.365-7.389-3.168-9.922-1.689m85.112-18.2c-3.025,1.267-6.3,5.881-10.169,5.038-2.535,2.393-3.1,4.926-6.862,5.244-7.494.387-6.614,6.9-13.687,6.438C8.023-67.468,6.9-58.024-4.609-59.046c-4.5,4.365-8.551,7.884-16.256,7.92.493,1.02.669,1.2,1.2,2.147,1.478,2.956,5.489,6.476,6.967,9.361.914,3.308,1.547,6.688,2.673,9.856,1.971,2.531,3.9,6.229,6.086,9.537,1.689,5.841,7.354,7.918,9.113,14.252C6.437-4.424,8.76-3.369,7.914-.905,6.367,4.8,7.493,12.819-.037,13.806a19.662,19.662,0,0,1-7.247,2.182L-8.973,14.3c-.845,1.055-.423,2.1-1.055,3.231-7.037-.423-8.674,2.84-17.117-5.572a6.556,6.556,0,0,1-1.69-4.436c-2.531-1.478-5.328-6.034-8-7.232C-42.116-.342-48.1.785-51.545-4.142c-1.337.773-.352,2.463-.21,3.589,2.885,3.518.7,9.362,4.223,12.459.633,1.2.281,2.744.351,4.082-2.182.422-4.856-.141-6.262,2.182-9.922-.423-16.535,7.18-26.177,7.6-5.98,2.888-12.455,5.7-19.562,6.406-7.95,3.027-17.1,3.238-25.824,4.436-3.238,2.041-6.826-.7-9.5-2.043-.282.494-.211,1.2-.845,1.549a7.236,7.236,0,0,1-5.347-5.066c-.634-1.126-1.689-.213-2.394.139,1.055-4.714,2.6-9.431,6.4-12.81,3.448-4.856-.493-9.993-1.831-14.569-.843-5.209-5.489-9.925-2.532-15.7a24.024,24.024,0,0,0,2.884-13.865c-.631-2.676-3.306-6.124-.352-8.587.916-4.224,4.364-7.391,3.52-12.318.069-1.83-.7-3.307-.634-5.067,2.461-6.335,9.85-8.939,9.921-16.05a9.645,9.645,0,0,1,2.181-5.631c4.293-.141,6.967-4.011,10.7-5.56,1.829-2.394,3.447-7.249,7.388-6.054,6.4-.351,10.625-7.883,17.24-5.56,4.15.422,9.077,2.887,13.157.141,2.535-2.744,5.208.843,7.812.493,1.549,1.267,3.8,1.055,5.7,1.548,4.785-.916,2.6-6.686,4.926-9.643,1.9.843,1.408,3.308,3.166,4.576.561,4.574,4.081,7.46,6.755,11.12,1.337.776,3.307,1.479,4.573.7a8.592,8.592,0,0,1,6.756-1.232s1.055,1.372.843,1.725a18.829,18.829,0,0,0-4.855,2.535c.914.773,3.767-.178,5.208-.353,2.884-.352,4.221-.879,6.684.881a8.664,8.664,0,0,1,.985,3.378c-5.489-1.8-5.067,1.372-8.8,2.217.914,1.058,1.829-.351,3.307.282,2.182.984,1.936,3.1,6.262,3.378,2.183,3.591,3.589.776,5.63,0,2.532-1.337,4.293-.985,8.021-.985,2.673-3.308,8.691-4.433,13.123-3.731,1.97-.281,2.147-2.182,3.623-3.237,4.5-1.477,5.56-2.006,13.162-1.829,3.941-6.757,12.738-2.112,17.729-6.618,2.184-.984,5.247-.6,7.569-1.165,1.618-.563,3.308-.984,4.785-.281a1.851,1.851,0,0,1-.845,3.025M-52.95-60.875c-.633,1.055-.7,3.026-2.391,3.026-.283-.071-.071-.422-.352-.493,1.2-3.942,1.125-8.448,2.532-12.317,2.885,2.252,1.125,6.757.211,9.784"
            transform="translate(143.091 98.04)" fill="#bfbfbf" />
    </g>
</svg>
  